<?xml version="1.0" standalone="no"?>
<!DOCTYPE svg PUBLIC "-//W3C//DTD SVG 20010904//EN"
 "http://www.w3.org/TR/2001/REC-SVG-20010904/DTD/svg10.dtd">
<svg version="1.0" xmlns="http://www.w3.org/2000/svg"
 width="1000.000000pt" height="1000.000000pt" viewBox="0 0 1000.000000 1000.000000"
 preserveAspectRatio="xMidYMid meet">
<metadata>
Created by potrace 1.14, written by Peter Selinger 2001-2017
</metadata>
<g transform="translate(0.000000,1000.000000) scale(0.100000,-0.100000)"
fill="#000000" stroke="none">
<path d="M1809 9122 c-232 -2 -247 -3 -252 -21 -2 -10 -1 -24 3 -31 4 -7 4
-26 0 -41 -5 -16 -5 -31 0 -34 4 -3 4 -22 0 -42 -5 -20 -5 -44 -1 -52 5 -8 5
-27 1 -43 -5 -16 -5 -28 0 -28 5 0 7 -6 4 -14 -9 -24 -10 -174 0 -169 4 3 5
-5 0 -18 -4 -13 -7 -37 -6 -54 0 -16 2 -48 2 -70 1 -22 1 -42 0 -45 -6 -18 -5
-52 1 -56 5 -2 6 -10 4 -17 -8 -21 -13 -97 -6 -97 3 0 6 -11 6 -25 0 -14 -4
-25 -9 -25 -6 0 -5 -5 1 -11 8 -8 8 -20 3 -35 -6 -14 -6 -26 0 -29 5 -3 7 -12
4 -19 -9 -24 -10 -116 -2 -116 5 0 4 -8 -1 -18 -5 -10 -6 -24 -1 -32 4 -7 6
-18 4 -24 -8 -26 -10 -96 -2 -96 5 0 6 -5 3 -11 -9 -14 -14 -59 -6 -59 4 0 5
-17 3 -37 -3 -44 -3 -43 -3 -125 1 -35 -1 -75 -3 -90 -2 -16 0 -28 5 -28 5 0
6 -6 4 -12 -9 -29 -13 -78 -5 -83 7 -4 6 -23 -3 -70 -3 -11 -1 -27 4 -36 5 -9
5 -19 2 -23 -12 -12 -12 -36 0 -36 8 0 8 -3 2 -8 -15 -10 -18 -55 -3 -46 7 5
8 3 3 -5 -10 -18 -13 -121 -3 -121 5 0 5 -7 0 -16 -5 -9 -7 -26 -4 -37 4 -15
2 -18 -9 -13 -8 4 -6 1 3 -7 10 -8 16 -16 13 -18 -9 -10 -12 -79 -3 -79 5 0 7
-4 3 -9 -8 -14 -13 -71 -6 -71 12 0 4 -60 -11 -77 -11 -14 -11 -16 1 -8 11 6
13 3 9 -13 -4 -12 -1 -22 4 -22 7 0 7 -5 -1 -13 -8 -10 -7 -17 1 -25 8 -8 8
-12 1 -12 -6 0 -9 -13 -6 -32 4 -39 5 -84 0 -118 -2 -14 1 -30 5 -37 5 -6 5
-14 -2 -18 -7 -4 -7 -13 1 -27 8 -15 8 -19 0 -14 -12 8 -11 -21 2 -41 5 -7 4
-13 0 -13 -5 0 -7 -21 -5 -47 1 -27 2 -59 2 -73 -1 -28 -1 -96 0 -150 1 -19
-1 -50 -3 -67 -2 -18 1 -33 6 -33 5 0 5 -6 -2 -13 -8 -10 -7 -17 1 -25 8 -8 9
-12 1 -12 -6 0 -10 -8 -8 -17 1 -10 -2 -24 -8 -31 -8 -10 -7 -12 4 -10 8 2 13
-2 12 -8 -1 -6 -4 -23 -7 -36 -2 -14 0 -31 4 -38 5 -8 4 -22 -1 -32 -7 -12 -6
-18 1 -18 6 0 8 -4 5 -10 -8 -14 -13 -80 -5 -80 4 0 7 -7 7 -15 0 -8 -3 -15
-6 -15 -3 0 -5 -33 -4 -73 4 -111 4 -139 0 -174 -2 -18 1 -33 6 -33 5 0 5 -6
-2 -13 -8 -10 -7 -17 1 -25 8 -8 9 -12 1 -12 -6 0 -10 -8 -8 -17 1 -10 -2 -24
-8 -31 -8 -10 -7 -12 4 -10 8 2 13 -2 12 -8 -1 -6 -4 -23 -7 -36 -2 -14 0 -31
4 -38 5 -8 4 -22 -1 -32 -7 -12 -6 -18 1 -18 6 0 8 -4 5 -10 -8 -14 -13 -80
-5 -80 4 0 7 -7 7 -15 0 -8 -3 -15 -6 -15 -3 0 -6 -34 -6 -75 0 -41 4 -75 8
-75 4 0 4 -8 -1 -17 -5 -10 -6 -27 -2 -38 4 -11 6 -24 4 -30 -9 -26 -10 -85
-2 -85 5 0 6 -5 3 -11 -10 -16 -12 -69 -3 -69 4 0 3 -11 -2 -25 -7 -18 -6 -25
3 -25 7 0 8 -3 2 -8 -13 -9 -14 -62 -2 -62 5 0 5 -6 -2 -13 -8 -10 -7 -17 1
-25 8 -8 8 -12 1 -12 -6 0 -9 -13 -6 -32 4 -39 5 -84 0 -118 -2 -14 1 -30 5
-37 5 -6 5 -14 -2 -18 -7 -4 -7 -13 1 -27 8 -15 8 -19 0 -14 -12 8 -11 -21 2
-41 5 -7 4 -13 0 -13 -5 0 -7 -21 -6 -47 4 -61 4 -69 3 -118 -1 -22 -1 -52 -1
-67 2 -90 1 -122 -3 -150 -2 -16 1 -28 6 -28 5 0 6 -5 3 -11 -11 -16 -12 -69
-2 -69 4 0 6 -4 2 -9 -10 -17 -13 -71 -3 -71 5 0 6 -5 3 -11 -11 -17 -12 -69
-2 -69 5 0 5 -6 -1 -13 -6 -7 -7 -18 -3 -26 5 -8 5 -26 1 -41 -4 -15 -4 -33 0
-39 4 -7 4 -30 0 -52 -5 -26 -4 -39 4 -39 7 0 7 -3 1 -8 -12 -8 -13 -42 -2
-59 4 -6 3 -14 -3 -18 -7 -4 -6 -13 1 -27 8 -15 8 -19 0 -14 -12 8 -11 -21 2
-41 5 -7 5 -13 0 -13 -10 0 -10 -71 0 -87 4 -6 1 -13 -5 -16 -10 -3 -10 -7 0
-19 9 -11 10 -18 2 -23 -7 -4 -7 -13 1 -27 8 -15 8 -19 0 -14 -12 8 -11 -21 2
-41 5 -7 5 -13 0 -13 -10 0 -10 -71 0 -87 4 -6 1 -14 -5 -16 -10 -4 -10 -6 -1
-6 8 -1 10 -8 5 -23 -4 -13 -6 -36 -5 -53 2 -16 3 -41 2 -55 0 -14 0 -32 0
-40 2 -25 1 -63 -3 -92 -2 -16 1 -28 6 -28 5 0 6 -5 3 -11 -11 -16 -13 -59 -4
-59 5 0 5 -10 0 -23 -6 -14 -5 -30 1 -41 6 -10 6 -21 2 -25 -12 -8 -12 -111
-1 -104 5 3 6 -4 3 -15 -12 -36 -14 -102 -3 -102 5 0 4 -7 -3 -15 -7 -8 -9
-15 -4 -15 5 0 9 -16 9 -35 0 -19 -2 -35 -5 -35 -8 0 -4 -85 5 -100 5 -9 4
-11 -3 -6 -7 4 -12 3 -12 -3 0 -5 5 -13 10 -16 7 -4 7 -13 0 -26 -8 -13 -7
-19 0 -19 6 0 8 -5 4 -12 -10 -16 -11 -178 0 -178 5 0 4 -6 -1 -13 -5 -6 -9
-19 -9 -27 1 -13 84 -16 661 -20 363 -3 773 -3 910 0 l250 5 -1 75 c0 44 4 78
10 82 8 5 7 8 -1 8 -7 0 -13 7 -13 16 0 9 5 12 13 8 10 -6 10 -4 0 7 -16 16
-17 43 -2 34 6 -4 5 3 -3 14 -11 18 -11 23 2 31 8 5 10 10 5 10 -14 0 -14 390
0 390 6 0 6 3 0 8 -13 9 -14 1272 -2 1272 5 0 5 6 0 13 -10 16 -11 307 0 307
4 0 5 6 0 13 -11 18 -11 287 1 280 5 -4 6 0 0 8 -12 19 -12 239 0 232 5 -4 6
0 0 8 -11 18 -12 419 -1 419 4 0 5 6 0 13 -11 17 -10 367 1 360 5 -4 6 0 0 8
-12 19 -12 319 0 312 5 -4 6 -1 0 8 -11 18 -12 259 -1 259 4 0 5 6 0 13 -12
19 -11 287 2 287 6 0 7 3 0 8 -13 9 -14 233 -1 225 5 -4 6 -1 0 8 -11 18 -12
419 -1 419 4 0 5 6 0 13 -12 18 -11 127 2 127 6 0 7 3 0 8 -13 9 -15 113 -2
105 6 -4 7 -1 1 8 -12 20 -13 120 -1 112 6 -4 7 -1 2 7 -13 21 -15 81 -2 73 6
-4 7 -1 1 8 -11 18 -12 859 -1 859 5 0 5 6 0 13 -11 17 -11 107 0 107 6 0 6 5
0 13 -5 7 -9 213 -9 494 l1 483 -160 1 c-88 0 -180 0 -205 0 -25 0 -79 0 -120
0 -41 0 -84 1 -95 1 -11 -1 -47 -1 -80 -1 -33 0 -159 0 -280 -1 -256 -1 -222
-2 -310 2 -38 2 -181 2 -316 0z"/>
<path d="M4256 9123 c-1 -2 -44 -3 -94 -4 -79 -1 -94 -4 -102 -19 -6 -10 -7
-21 -3 -23 7 -4 7 -55 3 -252 -1 -5 1 -43 3 -83 1 -40 0 -78 -4 -84 -5 -7 -3
-18 3 -26 9 -10 8 -16 -3 -23 -9 -6 -10 -12 -4 -16 13 -10 13 -136 0 -145 -7
-5 -7 -11 0 -15 13 -10 19 -47 6 -39 -6 4 -7 -5 0 -26 11 -41 11 -41 -3 -32
-7 5 -8 3 -3 -6 10 -16 14 -81 5 -75 -4 3 -5 -10 -3 -28 7 -57 9 -176 3 -172
-9 5 -6 -27 3 -42 4 -6 3 -14 -2 -17 -6 -4 -6 -18 -1 -36 5 -16 5 -32 0 -35
-5 -3 -4 -20 1 -38 11 -39 11 -40 0 -32 -9 5 -7 -29 5 -69 4 -10 2 -16 -3 -13
-11 7 -11 -23 0 -40 5 -7 3 -21 -3 -32 -7 -13 -7 -22 0 -26 5 -3 10 -11 10
-16 0 -6 -4 -8 -8 -5 -5 3 -9 -1 -9 -9 0 -8 3 -15 7 -15 8 0 6 -67 -2 -76 -4
-4 -4 -14 0 -23 9 -20 9 -42 -1 -58 -4 -6 -3 -15 3 -18 8 -5 8 -11 0 -20 -8
-9 -8 -15 0 -20 5 -3 10 -11 10 -16 0 -6 -4 -8 -9 -4 -6 3 -6 -7 0 -27 11 -41
11 -41 -2 -32 -7 4 -6 -3 2 -17 13 -25 13 -27 -2 -46 -7 -7 -6 -14 1 -18 5 -3
10 -11 10 -16 0 -6 -4 -8 -9 -4 -6 3 -6 -7 0 -27 11 -40 11 -40 1 -34 -5 3 -9
-1 -9 -9 0 -8 3 -15 7 -15 10 0 8 -33 -3 -47 -5 -7 -5 -13 0 -13 5 0 9 -9 10
-20 1 -13 -2 -18 -10 -13 -9 5 -9 3 0 -8 10 -12 10 -18 1 -27 -7 -7 -8 -12 -2
-12 5 0 10 -9 11 -20 1 -11 -2 -18 -8 -15 -5 4 -6 -3 -1 -17 9 -29 9 -59 -1
-76 -5 -6 -4 -12 1 -12 10 0 9 -101 -1 -117 -4 -7 -4 -14 0 -16 10 -6 10 -98
0 -115 -5 -6 -4 -12 0 -12 5 0 9 -9 10 -20 1 -13 -2 -18 -10 -14 -9 5 -9 3 0
-6 9 -10 10 -17 2 -27 -7 -7 -7 -13 -2 -13 5 0 9 -9 10 -20 1 -11 -2 -18 -6
-16 -9 6 -8 -25 2 -41 5 -7 3 -21 -3 -32 -7 -13 -7 -22 0 -26 5 -3 10 -11 10
-16 0 -6 -5 -7 -11 -3 -8 4 -8 1 -2 -12 11 -22 11 -34 0 -51 -4 -6 -3 -14 3
-18 5 -3 10 -11 10 -16 0 -6 -4 -8 -9 -4 -6 3 -6 -7 0 -27 11 -40 11 -40 1
-34 -5 3 -9 -1 -9 -9 0 -8 4 -15 8 -15 9 0 6 -26 -4 -36 -4 -4 -2 -13 4 -21 9
-10 8 -17 -1 -28 -7 -8 -8 -15 -3 -15 5 0 9 -9 10 -20 1 -12 -3 -18 -9 -14 -7
4 -7 0 -1 -12 11 -22 11 -34 0 -51 -4 -6 -3 -14 3 -18 5 -3 10 -11 10 -16 0
-6 -4 -8 -9 -4 -6 3 -6 -7 0 -27 11 -40 11 -40 1 -34 -5 3 -9 -1 -9 -9 0 -8 3
-15 7 -15 10 0 8 -33 -3 -47 -5 -7 -5 -13 0 -13 5 0 9 -9 10 -20 1 -13 -2 -18
-10 -13 -9 5 -9 3 0 -8 10 -12 10 -18 1 -27 -7 -7 -8 -12 -2 -12 5 0 10 -9 11
-20 1 -11 -2 -18 -8 -15 -5 4 -6 -3 -1 -17 9 -29 9 -59 -1 -76 -5 -6 -4 -12 1
-12 10 0 9 -101 -1 -117 -4 -7 -4 -14 0 -16 10 -6 10 -98 0 -115 -5 -6 -4 -12
0 -12 5 0 9 -9 10 -20 1 -13 -2 -18 -10 -13 -9 5 -9 3 0 -8 10 -12 10 -18 1
-27 -7 -7 -8 -12 -2 -12 5 0 10 -9 11 -20 1 -11 -2 -18 -6 -16 -9 6 -8 -25 2
-41 5 -7 3 -21 -3 -32 -7 -13 -7 -22 0 -26 5 -3 10 -11 10 -16 0 -6 -5 -7 -11
-3 -8 5 4 -29 15 -42 1 0 -5 -8 -12 -17 -9 -10 -10 -17 -2 -22 5 -3 10 -11 10
-16 0 -6 -4 -8 -9 -4 -6 3 -6 -7 0 -27 11 -40 11 -40 1 -34 -5 3 -9 -1 -9 -9
0 -8 3 -15 7 -15 10 0 8 -33 -3 -47 -5 -7 -5 -13 0 -13 5 0 9 -9 10 -20 1 -13
-2 -18 -10 -13 -9 5 -9 3 0 -8 10 -12 10 -18 1 -27 -7 -7 -8 -12 -2 -12 5 0
10 -9 11 -20 1 -11 -2 -18 -6 -16 -4 3 -8 -1 -8 -9 0 -8 3 -15 7 -15 8 0 5
-69 -4 -77 -3 -3 -1 -12 5 -19 7 -9 7 -19 0 -33 -7 -13 -8 -22 -1 -26 5 -3 10
-11 10 -16 0 -6 -4 -8 -8 -5 -5 3 -7 -5 -6 -17 1 -12 3 -22 4 -22 7 0 4 -103
-3 -112 -6 -8 -6 -13 0 -13 5 0 9 -9 10 -20 1 -13 -2 -18 -10 -13 -9 5 -9 3 0
-8 10 -12 10 -18 1 -27 -7 -7 -8 -12 -2 -12 5 0 10 -9 11 -20 1 -11 -2 -18 -6
-16 -9 6 -8 -25 2 -41 5 -7 3 -21 -3 -32 -7 -13 -7 -22 0 -26 5 -3 10 -11 10
-16 0 -6 -4 -8 -8 -5 -5 3 -9 -1 -9 -9 0 -8 4 -15 8 -15 9 0 7 -20 -4 -37 -4
-6 -3 -14 3 -18 5 -3 10 -11 10 -16 0 -6 -4 -8 -9 -4 -6 3 -6 -7 0 -27 11 -40
11 -40 1 -34 -11 6 -9 -25 2 -42 4 -7 2 -19 -4 -27 -7 -8 -8 -15 -3 -15 5 0 9
-9 10 -20 1 -13 -2 -18 -10 -13 -9 5 -9 3 0 -8 10 -12 10 -18 1 -27 -7 -7 -8
-12 -2 -12 5 0 10 -9 11 -20 1 -13 -2 -18 -9 -14 -7 5 -8 2 -4 -5 9 -15 14
-201 5 -196 -3 2 -4 -6 -3 -18 1 -12 3 -22 4 -22 7 0 4 -103 -3 -112 -6 -8 -6
-13 0 -13 5 0 9 -9 10 -20 1 -13 -2 -18 -10 -13 -9 5 -9 3 0 -8 10 -12 10 -18
1 -27 -7 -7 -8 -12 -2 -12 5 0 10 -9 11 -20 1 -11 -2 -18 -6 -16 -9 6 -8 -25
2 -41 5 -7 3 -21 -3 -32 -7 -13 -7 -22 0 -26 5 -3 10 -11 10 -16 0 -6 -4 -8
-8 -5 -5 3 -9 -1 -9 -9 0 -8 4 -15 8 -15 9 0 7 -20 -4 -37 -4 -6 -3 -14 3 -18
5 -3 10 -11 10 -16 0 -6 -4 -8 -9 -4 -6 3 -6 -7 0 -27 11 -40 11 -40 1 -34
-11 6 -9 -25 2 -42 4 -7 2 -19 -4 -27 -7 -8 -8 -15 -3 -15 5 0 9 -9 10 -20 1
-13 -2 -18 -10 -13 -9 5 -9 3 0 -8 10 -12 10 -18 1 -27 -7 -7 -8 -12 -2 -12 5
0 10 -9 11 -20 1 -11 -2 -18 -8 -15 -5 4 -6 -3 -1 -17 9 -26 8 -75 -1 -85 -4
-3 -2 -12 4 -19 7 -9 7 -19 0 -33 -7 -13 -8 -22 -1 -26 5 -3 10 -11 10 -16 0
-6 -4 -8 -8 -5 -5 3 -7 -5 -6 -17 1 -12 3 -22 4 -22 1 0 2 -37 3 -82 1 -44 -1
-79 -5 -77 -7 4 -2 -35 8 -70 4 -12 2 -16 -5 -12 -7 5 -9 0 -3 -16 7 -21 8
-58 2 -83 -1 -5 -1 -12 0 -15 7 -17 4 -88 -4 -83 -5 4 -6 1 -1 -7 9 -15 13
-320 4 -314 -3 1 -6 -3 -6 -11 0 -8 3 -15 7 -15 7 0 5 -109 -3 -116 -3 -3 -2
-18 3 -34 5 -18 4 -32 -3 -39 -8 -8 -8 -11 0 -11 6 0 9 -14 8 -30 l-3 -30 359
2 c198 2 359 1 359 -2 0 -3 245 -5 545 -5 l546 0 6 23 c3 13 3 25 0 28 -3 4
-2 17 3 30 5 13 6 24 1 24 -8 0 -6 52 4 77 2 7 0 15 -5 18 -6 3 -6 15 0 30 7
17 6 25 -1 25 -8 0 -8 4 0 13 6 8 8 17 4 20 -8 9 -10 248 -1 253 3 2 3 17 0
32 -9 36 -8 204 2 220 4 7 3 12 -3 12 -6 0 -6 11 -1 30 5 17 5 30 1 30 -7 0
-5 134 3 155 2 7 2 16 -1 19 -9 9 -10 607 -1 634 4 12 4 22 0 22 -4 0 -7 60
-7 134 0 74 4 132 8 129 5 -3 5 3 0 13 -10 22 -9 176 1 193 4 6 4 11 -1 11
-10 0 -9 452 1 468 4 7 4 12 -1 12 -10 0 -9 362 1 378 4 7 3 12 -3 12 -6 0 -6
11 -1 30 5 17 6 30 2 30 -9 0 -7 484 2 498 3 6 3 13 -1 15 -11 7 -8 290 2 307
5 9 4 11 -3 6 -9 -5 -9 0 -2 18 5 14 6 28 1 30 -6 4 -7 69 0 101 1 6 0 15 -1
20 -6 29 -4 433 2 451 4 12 4 25 0 28 -9 10 -8 105 1 99 5 -3 5 3 0 13 -11 23
-9 136 2 154 5 9 4 11 -3 6 -9 -5 -9 0 -2 18 5 14 6 27 2 30 -13 8 -5 235 8
251 11 13 10 14 -1 10 -11 -4 -14 10 -13 74 1 43 5 84 9 91 5 9 4 11 -3 6 -9
-5 -9 0 -2 18 5 14 6 27 2 30 -9 5 -7 220 2 235 4 6 3 11 -1 11 -5 0 -8 17 -7
38 4 67 4 95 3 228 -1 72 1 136 4 141 4 6 4 13 0 17 -9 9 -9 447 0 453 4 2 4
9 1 15 -9 15 -11 157 -2 151 5 -2 4 7 -2 21 -7 18 -6 26 1 26 8 0 7 5 -1 15
-9 11 -9 15 -1 15 8 0 9 5 2 17 -5 10 -5 26 0 40 5 13 5 23 0 23 -5 0 -7 15
-4 33 4 36 4 32 1 150 -2 48 0 87 4 87 4 0 5 6 2 14 -9 23 -10 167 -1 173 4 2
4 9 1 15 -4 6 -7 75 -7 154 l0 144 -131 0 c-72 0 -230 0 -351 0 -121 -1 -226
-1 -232 -1 -7 0 -60 0 -118 0 -58 0 -113 0 -122 0 -10 0 -163 1 -341 3 -178 2
-325 2 -326 1z"/>
<path d="M6855 9122 c-1 -2 -66 -3 -143 -3 -103 1 -141 -2 -144 -12 -2 -6 -4
-47 -3 -89 0 -47 -4 -78 -10 -78 -7 0 -7 -3 0 -8 15 -10 16 -163 1 -155 -8 5
-8 3 0 -8 6 -8 11 -23 11 -34 0 -11 -5 -26 -11 -34 -8 -11 -8 -13 0 -8 15 9
14 -65 0 -75 -8 -5 -7 -8 0 -8 14 0 15 -88 2 -96 -5 -3 -5 -11 -1 -17 12 -18
10 -121 -2 -129 -6 -5 -6 -8 3 -8 6 0 12 -5 12 -11 0 -5 -6 -7 -12 -3 -10 6
-10 4 -2 -7 12 -15 13 -97 2 -115 -4 -6 -4 -14 0 -18 11 -12 11 -146 -1 -139
-6 4 -7 1 -1 -8 5 -8 9 -53 9 -101 1 -78 -1 -86 -14 -75 -14 11 -14 10 -1 -7
18 -23 23 -129 6 -119 -8 5 -8 3 0 -8 6 -8 11 -23 11 -34 0 -11 -5 -26 -11
-34 -8 -11 -8 -13 1 -8 15 9 14 -32 -1 -52 -8 -11 -8 -13 2 -7 9 5 12 -2 9
-31 -1 -21 -7 -44 -11 -52 -6 -10 -5 -12 2 -7 7 4 12 1 12 -8 0 -9 -6 -16 -12
-16 -9 0 -8 -4 2 -10 13 -9 13 -10 0 -10 -10 0 -11 -3 -4 -8 13 -8 13 -81 0
-101 -6 -10 -5 -12 2 -7 7 4 12 1 12 -8 0 -9 -6 -16 -12 -16 -8 0 -9 -3 -3 -8
14 -10 15 -95 1 -104 -8 -6 -8 -8 1 -8 14 0 14 -39 -1 -59 -8 -11 -8 -13 0 -8
13 8 14 -151 0 -172 -6 -9 -5 -12 1 -8 7 4 10 -14 10 -53 -1 -35 -5 -56 -10
-53 -6 4 -7 1 -1 -8 13 -21 13 -89 0 -89 -7 0 -8 -3 0 -8 14 -10 15 -114 0
-105 -7 5 -7 2 1 -8 14 -18 14 -30 0 -48 -8 -10 -8 -12 -1 -8 15 8 14 -125 0
-135 -7 -5 -7 -8 -1 -8 13 0 14 -289 1 -309 -6 -9 -5 -12 1 -8 13 8 12 -92 -1
-112 -6 -9 -5 -12 1 -8 7 4 10 -14 10 -53 -1 -35 -5 -56 -10 -53 -6 4 -7 1 -1
-8 13 -21 13 -89 0 -89 -7 0 -8 -3 0 -8 14 -10 15 -114 0 -105 -8 5 -8 3 0 -8
12 -16 12 -29 0 -48 -6 -9 -5 -12 1 -8 14 9 12 -126 -1 -135 -7 -5 -7 -8 -1
-8 13 0 14 -289 1 -309 -6 -9 -5 -12 1 -8 13 8 12 -92 -1 -112 -6 -9 -5 -12 1
-8 7 4 10 -14 10 -53 -1 -39 -4 -57 -11 -53 -8 5 -8 3 0 -8 12 -17 12 -48 0
-68 -6 -9 -5 -12 1 -8 6 4 11 -4 11 -18 0 -14 -6 -25 -12 -25 -8 0 -8 -2 0 -8
13 -8 13 -110 0 -131 -6 -9 -5 -12 1 -8 14 9 12 -126 -1 -135 -7 -5 -7 -8 -1
-8 13 0 14 -289 1 -309 -6 -9 -5 -12 1 -8 13 8 12 -92 -1 -112 -6 -9 -5 -12 1
-8 7 4 10 -14 10 -53 -1 -35 -5 -56 -10 -53 -6 4 -7 1 -1 -8 13 -21 13 -89 0
-89 -7 0 -8 -3 0 -8 14 -10 15 -114 0 -105 -8 5 -8 3 0 -8 12 -16 12 -29 0
-48 -6 -9 -5 -12 1 -8 14 9 12 -166 -2 -175 -7 -5 -6 -8 1 -8 14 0 13 -108 0
-129 -6 -9 -5 -12 1 -8 14 9 12 -126 -1 -135 -7 -5 -7 -8 -1 -8 13 0 14 -289
1 -309 -6 -9 -5 -12 1 -8 13 8 12 -92 -1 -112 -6 -9 -5 -12 1 -8 6 4 9 -49 9
-143 0 -88 -4 -146 -10 -143 -5 4 -6 1 0 -8 13 -20 13 -121 0 -138 -8 -11 -8
-13 0 -8 7 4 11 -7 11 -33 0 -24 -4 -37 -10 -33 -6 4 -7 1 -1 -8 5 -8 10 -38
10 -67 1 -45 -1 -52 -15 -48 -14 6 -15 5 0 -6 18 -15 21 -79 5 -90 -8 -6 -8
-8 0 -8 13 0 14 -103 2 -116 -4 -4 -3 -13 3 -21 9 -10 8 -17 -2 -30 -8 -9 -9
-14 -3 -10 7 4 11 -16 11 -63 0 -46 -4 -67 -11 -63 -6 3 -5 0 2 -8 15 -16 16
-33 0 -23 -8 5 -8 3 -2 -7 13 -21 13 -140 0 -132 -6 3 -5 0 2 -8 16 -17 16
-32 0 -23 -9 5 -9 2 1 -9 11 -14 11 -20 0 -34 -8 -9 -9 -14 -2 -10 14 9 1800
10 1814 1 5 -3 9 30 9 78 2 1465 -1 4682 -5 4687 -2 5 -2 11 2 15 8 8 7 131
-1 144 -3 5 -3 12 0 15 4 3 6 35 6 71 0 35 -2 69 -6 74 -3 5 -3 12 0 14 6 7 6
1569 0 1575 -2 2 0 20 4 39 5 19 4 37 -1 40 -5 3 -7 9 -4 14 3 5 6 72 6 147 0
76 0 261 -1 410 l0 272 -132 1 c-73 1 -140 1 -148 1 -56 0 -246 -1 -300 0
-263 1 -528 1 -600 -1 -36 0 -127 0 -203 2 -76 2 -140 2 -142 0z"/>
<path d="M3470 8440 c0 -5 5 -10 11 -10 5 0 7 5 4 10 -3 6 -8 10 -11 10 -2 0
-4 -4 -4 -10z"/>
<path d="M6496 7918 c3 -5 10 -6 15 -3 13 9 11 12 -6 12 -8 0 -12 -4 -9 -9z"/>
<path d="M5916 7618 c3 -5 10 -6 15 -3 13 9 11 12 -6 12 -8 0 -12 -4 -9 -9z"/>
<path d="M3726 7602 c-3 -5 1 -9 9 -9 8 0 12 4 9 9 -3 4 -7 8 -9 8 -2 0 -6 -4
-9 -8z"/>
<path d="M3906 7038 c3 -5 10 -6 15 -3 13 9 11 12 -6 12 -8 0 -12 -4 -9 -9z"/>
<path d="M6076 6927 c3 -10 9 -15 12 -12 3 3 0 11 -7 18 -10 9 -11 8 -5 -6z"/>
<path d="M3647 6319 c7 -7 15 -10 18 -7 3 3 -2 9 -12 12 -14 6 -15 5 -6 -5z"/>
<path d="M3906 5758 c3 -5 10 -6 15 -3 13 9 11 12 -6 12 -8 0 -12 -4 -9 -9z"/>
<path d="M6255 5680 c-3 -5 -1 -10 4 -10 6 0 11 5 11 10 0 6 -2 10 -4 10 -3 0
-8 -4 -11 -10z"/>
<path d="M3395 5600 c-3 -5 -1 -10 4 -10 6 0 11 5 11 10 0 6 -2 10 -4 10 -3 0
-8 -4 -11 -10z"/>
<path d="M3830 4779 c0 -5 5 -7 10 -4 6 3 10 8 10 11 0 2 -4 4 -10 4 -5 0 -10
-5 -10 -11z"/>
<path d="M5916 4658 c3 -5 10 -6 15 -3 13 9 11 12 -6 12 -8 0 -12 -4 -9 -9z"/>
<path d="M3395 4640 c-3 -5 -1 -10 4 -10 6 0 11 5 11 10 0 6 -2 10 -4 10 -3 0
-8 -4 -11 -10z"/>
<path d="M3980 4506 c0 -2 8 -10 18 -17 15 -13 16 -12 3 4 -13 16 -21 21 -21
13z"/>
<path d="M3647 4399 c7 -7 15 -10 18 -7 3 3 -2 9 -12 12 -14 6 -15 5 -6 -5z"/>
<path d="M6075 4391 c-3 -5 -2 -12 3 -15 5 -3 9 1 9 9 0 17 -3 19 -12 6z"/>
<path d="M3910 3839 c0 -5 5 -7 10 -4 6 3 10 8 10 11 0 2 -4 4 -10 4 -5 0 -10
-5 -10 -11z"/>
<path d="M6110 3776 c0 -2 8 -10 18 -17 15 -13 16 -12 3 4 -13 16 -21 21 -21
13z"/>
<path d="M3565 3760 c-3 -6 1 -7 9 -4 18 7 21 14 7 14 -6 0 -13 -4 -16 -10z"/>
<path d="M6256 3762 c-3 -5 1 -9 9 -9 8 0 12 4 9 9 -3 4 -7 8 -9 8 -2 0 -6 -4
-9 -8z"/>
<path d="M3395 3680 c-3 -5 -1 -10 4 -10 6 0 11 5 11 10 0 6 -2 10 -4 10 -3 0
-8 -4 -11 -10z"/>
<path d="M3980 3546 c0 -2 8 -10 18 -17 15 -13 16 -12 3 4 -13 16 -21 21 -21
13z"/>
<path d="M3395 3360 c-3 -5 -1 -10 4 -10 6 0 11 5 11 10 0 6 -2 10 -4 10 -3 0
-8 -4 -11 -10z"/>
<path d="M3827 3199 c7 -7 15 -10 18 -7 3 3 -2 9 -12 12 -14 6 -15 5 -6 -5z"/>
<path d="M3647 3119 c7 -7 15 -10 18 -7 3 3 -2 9 -12 12 -14 6 -15 5 -6 -5z"/>
<path d="M3910 2879 c0 -5 5 -7 10 -4 6 3 10 8 10 11 0 2 -4 4 -10 4 -5 0 -10
-5 -10 -11z"/>
<path d="M6396 1998 c3 -5 10 -6 15 -3 13 9 11 12 -6 12 -8 0 -12 -4 -9 -9z"/>
<path d="M6516 1673 c-6 -14 -5 -15 5 -6 7 7 10 15 7 18 -3 3 -9 -2 -12 -12z"/>
<path d="M7795 1251 c-3 -5 -2 -12 3 -15 5 -3 9 1 9 9 0 17 -3 19 -12 6z"/>
</g>
</svg>
